<?xml version="1.0" encoding="UTF-8"?>
<svg version="1.1" xmlns="http://www.w3.org/2000/svg" width="313" height="312">
<path d="M0 0 C0.99 0 1.98 0 3 0 C5.05266694 6.50564635 6.74017992 12.98619255 8.0859375 19.671875 C8.46322503 21.48964908 8.84083953 23.30735532 9.21875 25.125 C9.79737985 27.9321367 10.37293502 30.73981373 10.94238281 33.54882812 C16.33336585 60.31292746 16.33336585 60.31292746 33.921875 80.34375 C42.11576782 86.87422097 43.41197821 96.59332817 44.56591797 106.52050781 C45.18760706 112.38945017 45.70735715 118.26777741 46.22949219 124.14624023 C46.65946192 140.75520595 46.65946192 140.75520595 53 155 C55.06731424 154.9420229 55.06731424 154.9420229 57 154 C59.87534392 148.06621242 60.75203359 142.18857474 61.5 135.6875 C61.62181641 134.7070874 61.74363281 133.7266748 61.86914062 132.71655273 C62.55890925 127.0750413 63.16935775 121.42713903 63.75 115.7734375 C63.87568359 114.57243408 64.00136719 113.37143066 64.13085938 112.1340332 C64.37179705 109.80289747 64.60272839 107.47069958 64.82226562 105.13745117 C65.75336581 96.05309874 67.61325749 87.87104526 74 81 C75.62359536 79.68048939 77.27160154 78.39068261 78.9375 77.125 C95.90245836 63.80436603 97.38051695 38.23184272 101.28466797 18.29443359 C101.53260605 17.03817924 101.53260605 17.03817924 101.78555298 15.75654602 C102.09720497 14.17246202 102.4045678 12.58752589 102.70687866 11.00163269 C103.46564965 7.14244503 104.38308912 3.59111833 106 0 C106.99 0.33 107.98 0.66 109 1 C114.06865471 12.23279286 115.70543751 25.06945989 117.88671875 37.09375 C118.74440385 41.78970677 119.77401927 46.38717752 121 51 C123.56673522 48.46258085 126.12759557 45.91930885 128.6875 43.375 C129.40873047 42.66214844 130.12996094 41.94929688 130.87304688 41.21484375 C133.96822631 38.13379756 137.01511148 35.07772576 139.77734375 31.69140625 C141.69941005 29.36398326 143.56467546 27.48457498 145.875 25.5625 C148.49956832 23.33381629 150.94465921 21.06094112 153.3125 18.5625 C157.67241244 14.15235816 162.56063752 9.9987297 168 7 C170.33203125 7.28125 170.33203125 7.28125 172 8 C171.56522571 15.38228997 169.03256732 21.28222948 166.0625 28 C165.06311351 30.309598 164.06443239 32.61950134 163.06640625 34.9296875 C162.5573877 36.09983398 162.04836914 37.26998047 161.52392578 38.47558594 C159.13313288 44.00482116 156.81403843 49.56330282 154.5 55.125 C154.09144775 56.10082031 153.68289551 57.07664063 153.26196289 58.08203125 C151.0640278 63.3515634 148.96742691 68.64002284 147 74 C148.37091797 73.30777344 148.37091797 73.30777344 149.76953125 72.6015625 C195.60211153 50 195.60211153 50 211 50 C209.98482085 54.91574899 207.38532966 58.74785935 204.8125 63 C204.28003662 63.88139648 203.74757324 64.76279297 203.19897461 65.67089844 C189.10054318 88.71094562 173.02165555 111.81107277 150.9609375 127.83203125 C146.14414609 131.35883762 141.5746898 135.16715179 137 139 C136.22366211 139.64678711 136.22366211 139.64678711 135.43164062 140.30664062 C112.3045605 158.16072721 112.3045605 158.16072721 95.0625 181.015625 C94.96394962 184.14459967 96.10607052 185.53340015 98 188 C100.17878084 189.82311867 102.33962386 191.51383994 104.625 193.1875 C116.07647791 201.99970721 122.54910303 211.11156973 129.39672852 223.80175781 C132.23159925 229.03818212 135.09519684 233.51670748 139 238 C139 238.66 139 239.32 139 240 C139.58934326 240.2671582 140.17868652 240.53431641 140.78588867 240.80957031 C143.03398288 242.01827109 144.58591747 243.28890583 146.42578125 245.046875 C147.05806641 245.645 147.69035156 246.243125 148.34179688 246.859375 C149.31729492 247.79523438 149.31729492 247.79523438 150.3125 248.75 C154.06425932 252.32382522 157.80654756 255.87387675 161.765625 259.21875 C164.17864685 261.26318677 166.389021 263.32957495 168.4375 265.75 C168.93121094 266.32234375 169.42492187 266.8946875 169.93359375 267.484375 C171 269 171 269 171 271 C165.99126983 270.43783505 161.93768982 268.76941604 157.4765625 266.54296875 C156.77155609 266.19873367 156.06654968 265.8544986 155.34017944 265.49983215 C153.09814792 264.40296292 150.861589 263.29541758 148.625 262.1875 C147.13055423 261.4543726 145.63576542 260.72194406 144.140625 259.99023438 C137.41118224 256.69178774 130.70126701 253.3552904 124 250 C126.1597032 257.44408338 129.39946873 263.61833721 133.375 270.25 C133.98698242 271.28543945 134.59896484 272.32087891 135.22949219 273.38769531 C140.01908091 281.45553511 144.92661625 289.45094616 149.91162109 297.39941406 C150.42031738 298.21120117 150.92901367 299.02298828 151.453125 299.859375 C151.89817383 300.56545898 152.34322266 301.27154297 152.80175781 301.99902344 C155.0400752 305.7368493 156 307.49307143 156 312 C151.75936326 311.50760379 149.32626057 308.88576518 146.375 306.0625 C145.82376465 305.54397461 145.2725293 305.02544922 144.70458984 304.49121094 C139.60362235 299.65430338 134.60853274 294.70738995 129.625 289.75 C128.87653809 289.0062915 128.12807617 288.26258301 127.35693359 287.49633789 C123.29410025 283.42129162 119.42575511 279.24749678 115.67041016 274.88867188 C113.03943346 271.91392243 110.21571755 269.1477578 107.375 266.375 C104.17103934 263.24660445 101.05590682 260.1401141 98.2265625 256.6640625 C96.27858094 253.97283268 96.27858094 253.97283268 94 253 C93.74476563 254.20527344 93.48953125 255.41054687 93.2265625 256.65234375 C83.40059487 300.69711459 83.40059487 300.69711459 72 310 C71.01 310 70.02 310 69 310 C69.0721875 309.18917969 69.144375 308.37835938 69.21875 307.54296875 C69.3115625 306.43566406 69.404375 305.32835937 69.5 304.1875 C69.5928125 303.10855469 69.685625 302.02960938 69.78125 300.91796875 C69.8534375 299.62503906 69.925625 298.33210938 70 297 C70.05019287 296.17951172 70.10038574 295.35902344 70.15209961 294.51367188 C70.40639579 287.15295328 68.89105564 281.06965519 66.5625 274.125 C65.91610239 272.12820738 65.271505 270.13083089 64.62890625 268.1328125 C64.1968689 266.83174561 64.1968689 266.83174561 63.75610352 265.50439453 C62.44780344 261.17099376 61.87156578 257.12605101 61.75390625 252.60546875 C61.72248535 251.57462158 61.69106445 250.54377441 61.65869141 249.48168945 C61.62694824 248.39460693 61.59520508 247.30752441 61.5625 246.1875 C61.47820003 227.97813116 61.47820003 227.97813116 56 211 C54.0327762 211.16129905 54.0327762 211.16129905 52 212 C50.88144275 213.93013126 50.88144275 213.93013126 50.3125 216.375 C50.08175781 217.16648438 49.85101563 217.95796875 49.61328125 218.7734375 C48.14835046 226.48065299 47.92244015 234.26938621 47.76049805 242.09472656 C47.50719387 253.04356679 46.55788143 262.58668851 43 273 C40.18515724 281.32048437 38.36151925 288.19378443 39 297 C39.07863281 298.17949219 39.15726563 299.35898437 39.23828125 300.57421875 C39.46607015 303.71906544 39.7203915 306.85939733 40 310 C36.68443966 309.75440294 35.80931793 308.80083667 33.453125 306.33984375 C25.59641056 296.21307861 22.56959477 282.79933616 19.0625 270.6875 C18.85919067 269.9866629 18.65588135 269.28582581 18.44641113 268.56375122 C15 256.60986477 15 256.60986477 15 253 C11.63776995 255.62417955 8.69611664 258.24483236 5.9375 261.5 C2.15956487 265.94264978 -1.94910861 270.00801977 -6.11743164 274.08007812 C-8.96422135 276.88216295 -11.6743167 279.73857799 -14.27734375 282.76953125 C-18.63564502 287.81096697 -23.34176291 292.4877907 -28.0625 297.1875 C-28.93455078 298.06341797 -29.80660156 298.93933594 -30.70507812 299.84179688 C-42.88171674 312 -42.88171674 312 -47 312 C-46.50389459 306.49151926 -44.45969314 302.84739393 -41.625 298.25 C-41.18236816 297.51483154 -40.73973633 296.77966309 -40.28369141 296.0222168 C-38.86645188 293.67480516 -37.43505742 291.33655547 -36 289 C-35.05720394 287.45968911 -34.11449489 285.91932496 -33.171875 284.37890625 C-32.70885986 283.62295166 -32.24584473 282.86699707 -31.76879883 282.08813477 C-31.30884521 281.33717529 -30.8488916 280.58621582 -30.375 279.8125 C-29.91697998 279.06476318 -29.45895996 278.31702637 -28.98706055 277.54663086 C-26.09952822 272.82387691 -23.22881753 268.09287527 -20.4375 263.3125 C-19.81746094 262.25675781 -19.19742188 261.20101563 -18.55859375 260.11328125 C-16.89941057 256.79907325 -15.97417696 253.56759045 -15 250 C-15.9065332 250.45850342 -16.81306641 250.91700684 -17.74707031 251.3894043 C-21.16681206 253.11761259 -24.58935468 254.84021246 -28.01269531 256.5612793 C-29.48349637 257.30165526 -30.95357144 258.04347553 -32.42285156 258.78686523 C-56.56911666 271 -56.56911666 271 -62 271 C-60.62929369 267.99908474 -59.04652408 265.6670775 -56.875 263.1875 C-56.06675781 262.24970703 -56.06675781 262.24970703 -55.2421875 261.29296875 C-52.00874614 257.98629614 -48.49797529 255.02203043 -45 252 C-34.87198316 243.17878416 -26.56090077 234.75217572 -20 223 C-12.20539477 209.1376042 -4.81554653 199.35968363 8.3984375 190.140625 C11.13356141 187.89010262 12.67844192 186.28876285 14 183 C11.36386311 171.27564294 -3.04877813 160.40778841 -11.859375 152.86328125 C-14.33186486 150.71113223 -16.72271357 148.48019281 -19.125 146.25 C-26.57215914 139.46024526 -34.55789873 133.36897667 -42.58203125 127.28125 C-63.55785627 111.26685912 -77.754669 91.01551154 -92 69 C-92.52384277 68.1941748 -93.04768555 67.38834961 -93.58740234 66.55810547 C-95.0265883 64.33660229 -96.45388972 62.10809947 -97.875 59.875 C-98.2980542 59.21814209 -98.7211084 58.56128418 -99.15698242 57.88452148 C-102 53.35178021 -102 53.35178021 -102 50 C-94.08847652 52.05186155 -86.34740253 54.45078224 -78.625 57.125 C-76.94229004 57.70725342 -76.94229004 57.70725342 -75.22558594 58.30126953 C-62.51817628 62.77133004 -49.99437659 67.84804555 -38 74 C-43.74712568 59.38147227 -49.6843888 44.87330771 -55.97558594 30.48144531 C-63.87740223 12.29086084 -63.87740223 12.29086084 -62 7 C-49.2748925 8.29356198 -35.73843659 27.03411068 -27.1875 35.6875 C-25.70555251 37.17950779 -24.2231334 38.6710473 -22.74023438 40.16210938 C-19.15471187 43.76937953 -15.57557697 47.38287257 -12 51 C-10.8199853 45.7552642 -9.6797895 40.50763088 -8.6328125 35.234375 C-8.38660156 34.01363281 -8.14039062 32.79289062 -7.88671875 31.53515625 C-7.38223148 29.02824258 -6.88217031 26.52043382 -6.38671875 24.01171875 C-4.7266973 15.83202757 -2.6088881 7.92822281 0 0 Z M-10 56 C-14.59642268 65.19284536 -11.42380658 82.16436837 -9 91.8125 C-6.59302772 101.40166826 -6.64510123 108.93128308 -8.1862793 118.63696289 C-10.76469813 135.09608503 -8.84817574 145.47707108 1 159 C5.69893923 164.79967499 11.44549747 168.95151026 17.58203125 173.140625 C20.02758174 175.02120987 21.60792398 176.24515483 23 179 C22.96665047 184.74278881 20.93728999 187.98529239 17.3125 192.1875 C7.73275247 204.1407321 4.4278179 213.75620736 6 229 C7.15606967 236.8560189 9.7341844 243.32307123 14 250 C18.13810463 246.7702598 21.55119405 243.36470478 24.9453125 239.3671875 C26.94598531 237.06222985 29.01704317 234.8359461 31.11010742 232.61499023 C40.81440578 222.24187992 45.14062336 213.70105742 48.40917969 199.96362305 C49.06285211 197.79110763 49.83164059 195.9468275 51 194 C53.4375 193.0625 53.4375 193.0625 56 193 C58.74376845 195.12949193 59.56392949 197.13312461 60.4375 200.4375 C60.68886719 201.32179687 60.94023437 202.20609375 61.19921875 203.1171875 C61.74456416 205.08043099 62.2887908 207.04398551 62.83203125 209.0078125 C66.5598913 221.41286169 74.96674629 229.23901096 83.6640625 238.4453125 C87.21261283 242.20856503 90.65037137 246.0585197 94 250 C102.13816426 241.57118702 103.39708834 229.176082 103.44873047 218.0090332 C103.19815892 206.77056083 97.45846987 198.87776717 90.34033203 190.62573242 C87.19272568 186.84629842 86.1453846 183.90818421 86 179 C88.66060722 174.53398073 92.08941494 172.15951813 96.3125 169.1875 C106.13150366 162.21534841 114.14228984 152.57313047 118 141 C118.22780253 138.00449243 118.18981003 135.00333134 118.1875 132 C118.1884668 130.71113892 118.1884668 130.71113892 118.18945312 129.39624023 C118.14403757 123.92624613 117.59307363 118.86885563 116.4609375 113.51171875 C115.02739545 105.70012942 115.93988701 98.78171199 118 91.1875 C119.93146643 83.97379087 120.38431894 77.08306123 120.375 69.625 C120.37693359 68.11715942 120.37693359 68.11715942 120.37890625 66.57885742 C120.41615196 60.96017711 120.41615196 60.96017711 118 56 C117.23429687 56.94746094 117.23429687 56.94746094 116.453125 57.9140625 C112.59520596 62.66121819 108.70510451 67.35934866 104.68383789 71.96826172 C97.69130365 80.00243142 91.18976078 88.33259926 85 97 C84.55962402 97.61407715 84.11924805 98.2281543 83.66552734 98.86083984 C82.41976398 100.62127138 81.20473317 102.3987999 80 104.1875 C79.319375 105.19167969 78.63875 106.19585937 77.9375 107.23046875 C71.91104945 117.84813907 70.60563397 130.83691405 68.64550781 142.7097168 C64.36517714 168.40635948 64.36517714 168.40635948 58 174 C55.5625 175.125 55.5625 175.125 53 175 C43.27390397 167.88334437 42.41724015 154.16888849 40.4375 143.1875 C34.42532478 110.46566116 20.03152451 90.57087844 -1.375 65.5 C-1.88740234 64.89978027 -2.39980469 64.29956055 -2.92773438 63.68115234 C-5.20582426 61.02867517 -7.50675001 58.45046695 -10 56 Z " fill="#FEFEFE" transform="translate(102,0)"/>
</svg>
